<?xml version="1.0" encoding="UTF-8"?>
<svg width="10px" height="6px" viewBox="0 0 10 6" version="1.1" xmlns="http://www.w3.org/2000/svg" xmlns:xlink="http://www.w3.org/1999/xlink">
    <!-- Generator: Sketch 47.1 (45422) - http://www.bohemiancoding.com/sketch -->
    <title></title>
    <desc>Created with Sketch.</desc>
    <defs></defs>
    <g id="Page-1" stroke="none" stroke-width="1" fill="none" fill-rule="evenodd">
        <g id="Kit" transform="translate(-300.000000, -573.000000)" fill="#000000">
            <path d="M309.508929,573.651786 C309.568453,573.71131 309.598214,573.779762 309.598214,573.857143 C309.598214,573.934524 309.568453,574.002976 309.508929,574.0625 L305.348214,578.223214 C305.28869,578.282738 305.220238,578.3125 305.142857,578.3125 C305.065476,578.3125 304.997024,578.282738 304.9375,578.223214 L300.776786,574.0625 C300.717262,574.002976 300.6875,573.934524 300.6875,573.857143 C300.6875,573.779762 300.717262,573.71131 300.776786,573.651786 L301.223214,573.205357 C301.282738,573.145833 301.35119,573.116071 301.428571,573.116071 C301.505953,573.116071 301.574404,573.145833 301.633929,573.205357 L305.142857,576.714286 L308.651786,573.205357 C308.71131,573.145833 308.779762,573.116071 308.857143,573.116071 C308.934524,573.116071 309.002976,573.145833 309.0625,573.205357 L309.508929,573.651786 Z" id=""></path>
        </g>
    </g>
</svg>